<?xml version="1.0" encoding="UTF-8" standalone="no"?>
<!-- Created with Inkscape (http://www.inkscape.org/) -->

<svg
   xmlns:dc="http://purl.org/dc/elements/1.1/"
   xmlns:cc="http://creativecommons.org/ns#"
   xmlns:rdf="http://www.w3.org/1999/02/22-rdf-syntax-ns#"
   xmlns:svg="http://www.w3.org/2000/svg"
   xmlns="http://www.w3.org/2000/svg"
   xmlns:sodipodi="http://sodipodi.sourceforge.net/DTD/sodipodi-0.dtd"
   xmlns:inkscape="http://www.inkscape.org/namespaces/inkscape"
   width="128"
   height="128"
   viewBox="0 0 33.866666 33.866668"
   version="1.1"
   id="svg8"
   inkscape:version="0.92.5 (2060ec1f9f, 2020-04-08)"
   sodipodi:docname="searcheverywhere.svg">
  <defs
     id="defs2" />
  <sodipodi:namedview
     id="base"
     pagecolor="#ffffff"
     bordercolor="#666666"
     borderopacity="1.0"
     inkscape:pageopacity="0.0"
     inkscape:pageshadow="2"
     inkscape:zoom="0.7"
     inkscape:cx="-380.87432"
     inkscape:cy="243.27799"
     inkscape:document-units="mm"
     inkscape:current-layer="layer1"
     showgrid="true"
     units="px"
     inkscape:snap-global="true"
     showguides="false"
     inkscape:window-width="1920"
     inkscape:window-height="1011"
     inkscape:window-x="1920"
     inkscape:window-y="0"
     inkscape:window-maximized="1">
    <inkscape:grid
       type="xygrid"
       id="grid836" />
  </sodipodi:namedview>
  <metadata
     id="metadata5">
    <rdf:RDF>
      <cc:Work
         rdf:about="">
        <dc:format>image/svg+xml</dc:format>
        <dc:type
           rdf:resource="http://purl.org/dc/dcmitype/StillImage" />
        <dc:title />
      </cc:Work>
    </rdf:RDF>
  </metadata>
  <g
     inkscape:label="Calque 1"
     inkscape:groupmode="layer"
     id="layer1"
     transform="translate(0,-263.13332)">
    <path
       inkscape:connector-curvature="0"
       style="fill:#e7e7e7;stroke-width:0.09395115"
       d="m 18.204151,282.43594 c 0,0.58776 -0.475956,1.06344 -1.063433,1.06344 H 4.9080907 c -0.5871007,0 -1.0634331,-0.47596 -1.0634331,-1.06344 v -17.0185 c 0,-0.58776 0.4763324,-1.06343 1.0634331,-1.06343 H 17.140343 c 0.587382,0 1.063433,0.47596 1.063433,1.06343 v 17.0185 z"
       id="path820" />
    <g
       id="g834"
       transform="matrix(0.09395115,0,0,0.09395115,-6.5827926,255.37632)">
	<path
   inkscape:connector-curvature="0"
   style="fill:#cb4f24;fill-opacity:0.57859534"
   d="m 247.899,144.892 c 0,1.949 -1.583,3.528 -3.532,3.528 H 131.295 c -1.949,0 -3.532,-1.579 -3.532,-3.528 v 0 c 0,-1.949 1.583,-3.536 3.532,-3.536 h 113.072 c 1.949,0 3.532,1.587 3.532,3.536 z"
   id="path822" />

	<path
   inkscape:connector-curvature="0"
   style="fill:#cb4f24;fill-opacity:0.57859534"
   d="m 247.899,163.444 c 0,1.949 -1.583,3.536 -3.532,3.536 H 131.295 c -1.949,0 -3.532,-1.587 -3.532,-3.536 v 0 c 0,-1.949 1.583,-3.536 3.532,-3.536 h 113.072 c 1.949,-0.004 3.532,1.583 3.532,3.536 z"
   id="path824" />

	<path
   inkscape:connector-curvature="0"
   style="fill:#cb4f24;fill-opacity:0.57859534"
   d="m 247.899,126.337 c 0,1.949 -1.583,3.536 -3.532,3.536 H 131.295 c -1.949,0 -3.532,-1.587 -3.532,-3.536 v 0 c 0,-1.949 1.583,-3.528 3.532,-3.528 h 113.072 c 1.949,-10e-4 3.532,1.578 3.532,3.528 z"
   id="path826" />

	<path
   inkscape:connector-curvature="0"
   style="fill:#cb4f24;fill-opacity:0.57859534"
   d="m 247.899,181.992 c 0,1.957 -1.583,3.536 -3.532,3.536 H 131.295 c -1.949,0 -3.532,-1.579 -3.532,-3.536 v 0 c 0,-1.949 1.583,-3.528 3.532,-3.528 h 113.072 c 1.949,-0.004 3.532,1.575 3.532,3.528 z"
   id="path828" />

	<path
   inkscape:connector-curvature="0"
   style="fill:#cb4f24;fill-opacity:0.57859534"
   d="m 247.899,199.66 c 0,1.949 -1.583,3.536 -3.532,3.536 H 131.295 c -1.949,0 -3.532,-1.587 -3.532,-3.536 v 0 c 0,-1.949 1.583,-3.536 3.532,-3.536 h 113.072 c 1.949,0 3.532,1.587 3.532,3.536 z"
   id="path830" />

	<path
   inkscape:connector-curvature="0"
   style="fill:#cb4f24;fill-opacity:0.57859534"
   d="m 247.899,218.208 c 0,1.949 -1.583,3.536 -3.532,3.536 H 131.295 c -1.949,0 -3.532,-1.587 -3.532,-3.536 v 0 c 0,-1.949 1.583,-3.528 3.532,-3.528 h 113.072 c 1.949,0 3.532,1.579 3.532,3.528 z"
   id="path832" />

</g>
    <path
       inkscape:connector-curvature="0"
       style="fill:#dddddd;stroke-width:0.09395115;fill-opacity:1"
       d="m 29.277704,285.42406 c 0,0.58776 -0.475957,1.06343 -1.063433,1.06343 H 15.981643 c -0.587101,0 -1.063433,-0.47595 -1.063433,-1.06343 v -17.0185 c 0,-0.58776 0.476332,-1.06343 1.063433,-1.06343 h 12.232252 c 0.587382,0 1.063433,0.47595 1.063433,1.06343 v 17.0185 z"
       id="path836" />
    <g
       id="g850"
       transform="matrix(0.09395115,0,0,0.09395115,-6.5827926,255.37632)">
	<path
   inkscape:connector-curvature="0"
   style="fill:#cb4f24;fill-opacity:1"
   d="m 365.765,176.697 c 0,1.949 -1.583,3.528 -3.532,3.528 H 249.16 c -1.949,0 -3.532,-1.579 -3.532,-3.528 v 0 c 0,-1.949 1.583,-3.536 3.532,-3.536 h 113.072 c 1.95,0 3.533,1.587 3.533,3.536 z"
   id="path838" />

	<path
   inkscape:connector-curvature="0"
   style="fill:#cb4f24;fill-opacity:1"
   d="m 365.765,195.249 c 0,1.949 -1.583,3.536 -3.532,3.536 H 249.16 c -1.949,0 -3.532,-1.587 -3.532,-3.536 v 0 c 0,-1.949 1.583,-3.536 3.532,-3.536 h 113.072 c 1.95,-0.004 3.533,1.583 3.533,3.536 z"
   id="path840" />

	<path
   inkscape:connector-curvature="0"
   style="fill:#cb4f24;fill-opacity:1"
   d="m 365.765,158.142 c 0,1.949 -1.583,3.536 -3.532,3.536 H 249.16 c -1.949,0 -3.532,-1.587 -3.532,-3.536 v 0 c 0,-1.949 1.583,-3.528 3.532,-3.528 h 113.072 c 1.95,-0.001 3.533,1.578 3.533,3.528 z"
   id="path842" />

	<path
   inkscape:connector-curvature="0"
   style="fill:#cb4f24;fill-opacity:1"
   d="m 365.765,213.797 c 0,1.957 -1.583,3.536 -3.532,3.536 H 249.16 c -1.949,0 -3.532,-1.579 -3.532,-3.536 v 0 c 0,-1.949 1.583,-3.528 3.532,-3.528 h 113.072 c 1.95,-0.005 3.533,1.575 3.533,3.528 z"
   id="path844" />

	<path
   inkscape:connector-curvature="0"
   style="fill:#cb4f24;fill-opacity:1"
   d="m 365.765,231.465 c 0,1.949 -1.583,3.536 -3.532,3.536 H 249.16 c -1.949,0 -3.532,-1.587 -3.532,-3.536 v 0 c 0,-1.949 1.583,-3.536 3.532,-3.536 h 113.072 c 1.95,0 3.533,1.587 3.533,3.536 z"
   id="path846" />

	<path
   inkscape:connector-curvature="0"
   style="fill:#cb4f24;fill-opacity:1"
   d="m 365.765,250.017 c 0,1.949 -1.583,3.536 -3.532,3.536 H 249.16 c -1.949,0 -3.532,-1.587 -3.532,-3.536 v 0 c 0,-1.949 1.583,-3.528 3.532,-3.528 h 113.072 c 1.95,-0.004 3.533,1.575 3.533,3.528 z"
   id="path848" />

</g>
    <path
       inkscape:connector-curvature="0"
       style="fill:#666666;fill-opacity:0.29765886;stroke-width:0.09395115"
       d="m 11.274357,271.38342 c -0.587382,0 -1.063433,0.47633 -1.063433,1.06343 v 17.0185 c 0,0.58776 0.475957,1.06409 1.063433,1.06409 h 12.232346 c 0.587383,0 1.063433,-0.47633 1.063433,-1.06409 V 276.3089 l -5.12729,-4.92548 z"
       id="path852-3" />
    <path
       inkscape:connector-curvature="0"
       style="fill:#e2e2e2;stroke-width:0.09395115;fill-opacity:1"
       d="m 10.480709,272.25493 c -0.5873824,0 -1.0634329,0.47633 -1.0634329,1.06343 v 17.0185 c 0,0.58776 0.4759566,1.06409 1.0634329,1.06409 h 12.232346 c 0.587383,0 1.063433,-0.47633 1.063433,-1.06409 v -13.15645 l -5.12729,-4.92548 z"
       id="path852" />
    <path
       inkscape:connector-curvature="0"
       style="fill:#bcbcbc;stroke-width:0.09395115;fill-opacity:1"
       d="m 23.776394,277.18041 h -4.063857 c -0.587382,0 -1.063433,-0.47596 -1.063433,-1.06343 v -3.86205 z"
       id="path854" />
    <g
       id="g866"
       transform="matrix(0.09395115,0,0,0.09395115,-6.5827926,255.37632)">
	<path
   inkscape:connector-curvature="0"
   style="fill:#cb4f24;fill-opacity:1"
   d="m 307.21,247.547 c 0,1.949 -1.583,3.528 -3.532,3.528 H 190.605 c -1.949,0 -3.536,-1.579 -3.536,-3.528 v 0 c 0,-1.949 1.587,-3.536 3.536,-3.536 h 113.072 c 1.954,-0.003 3.533,1.583 3.533,3.536 z"
   id="path856" />

	<path
   inkscape:connector-curvature="0"
   style="fill:#cb4f24;fill-opacity:1"
   d="m 307.21,266.095 c 0,1.949 -1.583,3.536 -3.532,3.536 H 190.605 c -1.949,0 -3.536,-1.587 -3.536,-3.536 v 0 c 0,-1.949 1.587,-3.536 3.536,-3.536 h 113.072 c 1.954,-0.003 3.533,1.583 3.533,3.536 z"
   id="path858" />

	<path
   inkscape:connector-curvature="0"
   style="fill:#cb4f24;fill-opacity:1"
   d="m 307.21,283.756 c 0,1.949 -1.583,3.536 -3.532,3.536 H 190.605 c -1.949,0 -3.536,-1.587 -3.536,-3.536 v 0 c 0,-1.949 1.587,-3.529 3.536,-3.529 h 113.072 c 1.954,0.001 3.533,1.58 3.533,3.529 z"
   id="path860" />

	<path
   inkscape:connector-curvature="0"
   style="fill:#cb4f24;fill-opacity:1"
   d="m 307.21,302.312 c 0,1.949 -1.583,3.529 -3.532,3.529 H 190.605 c -1.949,0 -3.536,-1.579 -3.536,-3.529 v 0 c 0,-1.949 1.587,-3.536 3.536,-3.536 h 113.072 c 1.954,0 3.533,1.586 3.533,3.536 z"
   id="path862" />

	<path
   inkscape:connector-curvature="0"
   style="fill:#cb4f24;fill-opacity:1"
   d="m 249.796,317.331 h -59.191 c -1.949,0 -3.536,1.579 -3.536,3.528 0,1.949 1.587,3.536 3.536,3.536 h 59.187 c 1.949,0 3.532,-1.587 3.532,-3.536 10e-4,-1.949 -1.578,-3.528 -3.528,-3.528 z"
   id="path864" />

</g>
    <g
       id="g868"
       transform="matrix(0.09395115,0,0,0.09395115,-6.5827926,255.37632)">
</g>
    <g
       id="g870"
       transform="matrix(0.09395115,0,0,0.09395115,-6.5827926,255.37632)">
</g>
    <g
       id="g872"
       transform="matrix(0.09395115,0,0,0.09395115,-6.5827926,255.37632)">
</g>
    <g
       id="g874"
       transform="matrix(0.09395115,0,0,0.09395115,-6.5827926,255.37632)">
</g>
    <g
       id="g876"
       transform="matrix(0.09395115,0,0,0.09395115,-6.5827926,255.37632)">
</g>
    <g
       id="g878"
       transform="matrix(0.09395115,0,0,0.09395115,-6.5827926,255.37632)">
</g>
    <g
       id="g880"
       transform="matrix(0.09395115,0,0,0.09395115,-6.5827926,255.37632)">
</g>
    <g
       id="g882"
       transform="matrix(0.09395115,0,0,0.09395115,-6.5827926,255.37632)">
</g>
    <g
       id="g884"
       transform="matrix(0.09395115,0,0,0.09395115,-6.5827926,255.37632)">
</g>
    <g
       id="g886"
       transform="matrix(0.09395115,0,0,0.09395115,-6.5827926,255.37632)">
</g>
    <g
       id="g888"
       transform="matrix(0.09395115,0,0,0.09395115,-6.5827926,255.37632)">
</g>
    <g
       id="g890"
       transform="matrix(0.09395115,0,0,0.09395115,-6.5827926,255.37632)">
</g>
    <g
       id="g892"
       transform="matrix(0.09395115,0,0,0.09395115,-6.5827926,255.37632)">
</g>
    <g
       id="g894"
       transform="matrix(0.09395115,0,0,0.09395115,-6.5827926,255.37632)">
</g>
    <g
       id="g896"
       transform="matrix(0.09395115,0,0,0.09395115,-6.5827926,255.37632)">
</g>
    <path
       style="fill:#315b7c;fill-opacity:1;stroke:none;stroke-width:0.28863648;stroke-opacity:1"
       d="m 16.000335,267.97004 a 11.545459,11.545459 0 0 0 -11.5454588,11.54547 11.545459,11.545459 0 0 0 11.5454588,11.54545 11.545459,11.545459 0 0 0 6.489248,-1.99847 l 7.131916,7.13192 c 0.848022,0.84802 2.213665,0.84802 3.061688,0 0.848023,-0.84803 0.848023,-2.2131 0,-3.06112 l -7.139808,-7.13925 a 11.545459,11.545459 0 0 0 2.002416,-6.47853 11.545459,11.545459 0 0 0 -11.54546,-11.54547 z m 0,1.44319 A 10.102277,10.102277 0 0 1 26.102613,279.51551 10.102277,10.102277 0 0 1 16.000335,289.61778 10.102277,10.102277 0 0 1 5.8980587,279.51551 10.102277,10.102277 0 0 1 16.000335,269.41323 Z"
       id="path4545"
       inkscape:connector-curvature="0" />
  </g>
</svg>
